<?xml version="1.0" standalone="no"?>
<!DOCTYPE svg PUBLIC "-//W3C//DTD SVG 20010904//EN"
 "http://www.w3.org/TR/2001/REC-SVG-20010904/DTD/svg10.dtd">
<svg version="1.0" xmlns="http://www.w3.org/2000/svg"
 width="512.000000pt" height="512.000000pt" viewBox="0 0 512.000000 512.000000"
 preserveAspectRatio="xMidYMid meet">
<metadata>
Created by potrace 1.14, written by Peter Selinger 2001-2017
</metadata>
<g transform="translate(0.000000,512.000000) scale(0.100000,-0.100000)"
fill="#000000" stroke="none">
<path d="M2350 5105 c-275 -43 -522 -159 -713 -335 -68 -62 -1208 -1202 -1282
-1281 -114 -122 -226 -311 -280 -473 -90 -269 -96 -585 -16 -841 60 -192 147
-353 268 -492 119 -137 1320 -1327 1403 -1389 47 -36 144 -94 215 -129 204
-100 346 -135 570 -141 324 -7 603 81 858 272 99 74 1348 1317 1437 1430 127
160 228 384 265 586 19 101 23 170 20 293 -2 77 -6 150 -8 161 -3 12 -8 39
-11 60 -30 189 -133 414 -272 595 -23 31 -340 353 -703 716 -509 509 -682 675
-751 724 -171 121 -343 195 -543 235 -108 21 -348 26 -457 9z m312 -775 c35
-7 101 -29 148 -51 l85 -40 661 -662 c714 -715 701 -700 744 -851 20 -73 25
-216 8 -286 -6 -25 -28 -83 -50 -130 l-39 -85 -662 -661 c-757 -755 -718 -723
-927 -758 -133 -22 -288 14 -407 94 -34 23 -327 309 -699 682 l-642 643 -40
85 c-71 148 -81 296 -31 445 16 47 43 107 61 135 18 27 326 342 683 699 628
626 653 650 727 686 125 61 248 79 380 55z"/>
</g>
</svg>
