<?xml version="1.0" standalone="no"?>
<!DOCTYPE svg PUBLIC "-//W3C//DTD SVG 20010904//EN"
 "http://www.w3.org/TR/2001/REC-SVG-20010904/DTD/svg10.dtd">
<svg version="1.0" xmlns="http://www.w3.org/2000/svg"
 width="226.000000pt" height="226.000000pt" viewBox="0 0 226.000000 226.000000"
 preserveAspectRatio="xMidYMid meet">
<metadata>
Created by potrace 1.14, written by Peter Selinger 2001-2017
</metadata>
<g transform="translate(0.000000,226.000000) scale(0.100000,-0.100000)"
fill="#000000" stroke="none">
<path d="M609 2256 c-2 -2 -22 -6 -44 -9 -64 -9 -163 -49 -240 -97 -105 -65
-189 -159 -250 -279 -72 -143 -69 -119 -72 -706 -1 -318 2 -554 8 -589 30
-179 151 -360 309 -461 84 -54 119 -69 210 -94 71 -19 101 -20 615 -17 297 1
553 5 568 9 220 57 401 210 490 413 55 125 57 151 54 734 -3 508 -4 538 -23
595 -86 251 -260 418 -505 484 -69 18 -108 20 -595 20 -286 1 -522 -1 -525 -3z
m1076 -424 c56 -26 115 -84 148 -146 22 -40 22 -49 25 -521 3 -339 0 -496 -8
-533 -14 -66 -59 -134 -113 -173 -81 -59 -96 -60 -634 -57 -455 3 -490 4 -523
22 -63 34 -116 83 -146 138 l-29 53 -3 480 c-2 328 0 496 8 531 22 102 93 181
193 216 48 16 92 18 542 15 488 -2 490 -2 540 -25z"/>
</g>
</svg>
